# xmcd
#
# Track frame offsets:
#	150
#	11889
#	25058
#	41284
#	52139
#	64129
#	77513
#	94243
#	106515
#	117441
#
# Disc length: 1736 seconds
#
# Revision: 0
# Processed by: cddbd v1.5.2PL0 Copyright (c) Steve Scherf et al.
# Submitted via: dBpowerAMP V4.0
#
DISCID=7706c60a
DTITLE=Andre Williams With The Diplomats Of Sound - Aphrodisiac
DYEAR=1900
DGENRE=
TTITLE0=Hold Up
TTITLE1=Do You Remember-
TTITLE2=I'm Not Worthy
TTITLE3=Prove It To Me
TTITLE4=I Don't Need Mary (Juana)
TTITLE5=Three Sisters
TTITLE6=Uptown Hustle
TTITLE7=Chrysler 300
TTITLE8=Thunder Thighs
TTITLE9=I Can See
EXTD=
EXTT0=
EXTT1=
EXTT2=
EXTT3=
EXTT4=
EXTT5=
EXTT6=
EXTT7=
EXTT8=
EXTT9=
PLAYORDER=
